<svg width="278" height="45" viewBox="0 0 278 45" fill="none" xmlns="http://www.w3.org/2000/svg">
<path d="M225.089 25.0088C223.318 25.5399 221.394 29.386 220.782 30.8999C219.766 33.4081 219.362 36.1411 220.762 38.568C222.639 41.8212 225.537 43.2118 229.261 43.0877C246.186 42.5235 245.949 18.6006 245.949 6.73674C245.949 5.89885 245.5 2.0625 246.818 2.0625C248.73 2.0625 248.294 4.84206 248.731 6.23455C249.365 8.25552 248.962 10.4048 249.252 12.4926C249.544 14.5914 249.774 16.6157 249.774 18.7314C249.774 21.4562 250.432 23.8311 250.894 26.4767C251.252 28.529 251.526 30.9692 252.207 32.928C253.295 36.0561 253.77 39.3272 256.727 41.1755C259.653 43.0042 262.965 31.377 262.985 29.8762C263.045 25.4118 260.384 21.5927 256.92 19.0984C252.479 15.9009 247.012 16.5457 241.777 16.6647C237.851 16.7539 233.085 19.4723 233.085 23.8113C233.085 29.6658 238.644 32.0777 243.67 32.5803C250.835 33.2968 258.979 31.7259 264.53 26.9403C269.191 22.9224 274.018 16.9116 276.197 11.1019" stroke="#3C306B" stroke-width="3" stroke-linecap="round"/>
<path d="M8.27344 3.58984L3.41016 18.0625H0L6.375 1H8.55469L8.27344 3.58984ZM12.3398 18.0625L7.45312 3.58984L7.16016 1H9.35156L15.7617 18.0625H12.3398ZM12.1172 11.7227V14.2656H2.96484V11.7227H12.1172Z" fill="#3C306B"/>
<path d="M23.5195 12.6953H19.5L19.4766 10.5977H22.7812C23.2734 10.5977 23.6758 10.5469 23.9883 10.4453C24.3008 10.3438 24.5312 10.1914 24.6797 9.98828C24.8359 9.78516 24.9141 9.53906 24.9141 9.25C24.9141 9 24.8672 8.78516 24.7734 8.60547C24.6797 8.41797 24.5391 8.26562 24.3516 8.14844C24.1719 8.03125 23.9414 7.94531 23.6602 7.89062C23.3867 7.82812 23.0664 7.79688 22.6992 7.79688H20.6016V18.0625H17.4961V5.38281H22.6992C23.5195 5.38281 24.2578 5.45703 24.9141 5.60547C25.5703 5.74609 26.1289 5.96094 26.5898 6.25C27.0508 6.53906 27.4023 6.90625 27.6445 7.35156C27.8945 7.78906 28.0195 8.30469 28.0195 8.89844C28.0195 9.28906 27.9336 9.65625 27.7617 10C27.5898 10.3438 27.3359 10.6484 27 10.9141C26.6641 11.1797 26.25 11.3984 25.7578 11.5703C25.2656 11.7344 24.7031 11.8359 24.0703 11.875L23.5195 12.6953ZM23.5195 18.0625H18.668L19.8164 15.6484H23.5195C23.9727 15.6484 24.3477 15.5938 24.6445 15.4844C24.9414 15.3672 25.1602 15.1992 25.3008 14.9805C25.4492 14.7617 25.5234 14.4961 25.5234 14.1836C25.5234 13.8789 25.4531 13.6172 25.3125 13.3984C25.1797 13.1719 24.9648 13 24.668 12.8828C24.3789 12.7578 23.9961 12.6953 23.5195 12.6953H20.3203L20.3438 10.5977H24.0586L24.8789 11.4297C25.7227 11.4844 26.4219 11.6562 26.9766 11.9453C27.5312 12.2266 27.9453 12.5859 28.2188 13.0234C28.4922 13.4531 28.6289 13.9258 28.6289 14.4414C28.6289 15.043 28.5156 15.5703 28.2891 16.0234C28.0625 16.4766 27.7305 16.8555 27.293 17.1602C26.8555 17.457 26.3203 17.6836 25.6875 17.8398C25.0547 17.9883 24.332 18.0625 23.5195 18.0625Z" fill="#3C306B"/>
<path d="M36.8906 5.38281V18.0625H33.7852V5.38281H36.8906ZM41.0156 5.38281V7.79688H29.7305V5.38281H41.0156Z" fill="#3C306B"/>
<path d="M41.8594 11.8516V11.6055C41.8594 10.6758 41.9922 9.82031 42.2578 9.03906C42.5234 8.25 42.9102 7.56641 43.418 6.98828C43.9258 6.41016 44.5469 5.96094 45.2812 5.64062C46.0156 5.3125 46.8516 5.14844 47.7891 5.14844C48.7422 5.14844 49.5859 5.3125 50.3203 5.64062C51.0625 5.96094 51.6875 6.41016 52.1953 6.98828C52.7031 7.56641 53.0898 8.25 53.3555 9.03906C53.6211 9.82031 53.7539 10.6758 53.7539 11.6055V11.8516C53.7539 12.7734 53.6211 13.6289 53.3555 14.418C53.0898 15.1992 52.7031 15.8828 52.1953 16.4688C51.6875 17.0469 51.0664 17.4961 50.332 17.8164C49.5977 18.1367 48.7578 18.2969 47.8125 18.2969C46.875 18.2969 46.0352 18.1367 45.293 17.8164C44.5508 17.4961 43.9258 17.0469 43.418 16.4688C42.9102 15.8828 42.5234 15.1992 42.2578 14.418C41.9922 13.6289 41.8594 12.7734 41.8594 11.8516ZM44.9531 11.6055V11.8516C44.9531 12.4062 45.0078 12.9258 45.1172 13.4102C45.2266 13.8945 45.3945 14.3203 45.6211 14.6875C45.8477 15.0547 46.1406 15.3438 46.5 15.5547C46.8672 15.7578 47.3047 15.8594 47.8125 15.8594C48.3125 15.8594 48.7422 15.7578 49.1016 15.5547C49.4609 15.3438 49.7539 15.0547 49.9805 14.6875C50.2148 14.3203 50.3867 13.8945 50.4961 13.4102C50.6055 12.9258 50.6602 12.4062 50.6602 11.8516V11.6055C50.6602 11.0586 50.6055 10.5469 50.4961 10.0703C50.3867 9.58594 50.2148 9.16016 49.9805 8.79297C49.7539 8.41797 49.457 8.125 49.0898 7.91406C48.7305 7.69531 48.2969 7.58594 47.7891 7.58594C47.2891 7.58594 46.8594 7.69531 46.5 7.91406C46.1406 8.125 45.8477 8.41797 45.6211 8.79297C45.3945 9.16016 45.2266 9.58594 45.1172 10.0703C45.0078 10.5469 44.9531 11.0586 44.9531 11.6055Z" fill="#3C306B"/>
<path d="M60.5625 7.58594C60.1406 7.58594 59.7617 7.67188 59.4258 7.84375C59.0977 8.01562 58.8398 8.25781 58.6523 8.57031C58.4648 8.875 58.3711 9.23828 58.3711 9.66016H55.4414C55.4414 8.80078 55.6719 8.03125 56.1328 7.35156C56.6016 6.67188 57.2227 6.13672 57.9961 5.74609C58.7695 5.34766 59.625 5.14844 60.5625 5.14844C61.5078 5.14844 62.3398 5.3125 63.0586 5.64062C63.7852 5.96875 64.3906 6.42578 64.875 7.01172C65.3672 7.59766 65.7383 8.27734 65.9883 9.05078C66.2383 9.82422 66.3633 10.6523 66.3633 11.5352V11.9102C66.3633 12.793 66.2383 13.6211 65.9883 14.3945C65.7383 15.168 65.3672 15.8477 64.875 16.4336C64.3906 17.0195 63.7891 17.4766 63.0703 17.8047C62.3516 18.1328 61.5234 18.2969 60.5859 18.2969C59.5781 18.2969 58.6875 18.0977 57.9141 17.6992C57.1406 17.3008 56.5352 16.7383 56.0977 16.0117C55.6602 15.2852 55.4414 14.4336 55.4414 13.457H58.3711C58.3711 13.9023 58.4609 14.3086 58.6406 14.6758C58.8203 15.0352 59.0742 15.3242 59.4023 15.543C59.7305 15.7539 60.125 15.8594 60.5859 15.8594C61.0859 15.8594 61.5039 15.75 61.8398 15.5312C62.1836 15.3125 62.457 15.0156 62.6602 14.6406C62.8711 14.2656 63.0195 13.8438 63.1055 13.375C63.1992 12.8984 63.2461 12.4102 63.2461 11.9102V11.5352C63.2461 11.0273 63.1992 10.5391 63.1055 10.0703C63.0195 9.59375 62.875 9.17188 62.6719 8.80469C62.4688 8.42969 62.1914 8.13281 61.8398 7.91406C61.4961 7.69531 61.0703 7.58594 60.5625 7.58594ZM64.3359 10.668V12.6367H59.4844V10.668H64.3359Z" fill="#3C306B"/>
<path d="M76.9219 5.38281V7.83203H70.7109V5.38281H76.9219ZM79.2539 5.38281V18.0625H76.1602V5.38281H79.2539ZM69.9375 5.38281H72.9961L72.6562 11.7109C72.6016 12.6406 72.5039 13.457 72.3633 14.1602C72.2227 14.8555 72.0352 15.4531 71.8008 15.9531C71.5664 16.4453 71.2812 16.8477 70.9453 17.1602C70.6094 17.4727 70.2188 17.7031 69.7734 17.8516C69.3359 17.9922 68.8438 18.0625 68.2969 18.0625H67.3477L67.3125 15.5664L67.7578 15.5312C68.0312 15.5078 68.2656 15.4336 68.4609 15.3086C68.6641 15.1836 68.8359 15.0039 68.9766 14.7695C69.125 14.5352 69.2461 14.2344 69.3398 13.8672C69.4414 13.4922 69.5195 13.0547 69.5742 12.5547C69.6367 12.0469 69.6797 11.4609 69.7031 10.7969L69.9375 5.38281Z" fill="#3C306B"/>
<path d="M87.7852 18.2969C86.8242 18.2969 85.9609 18.1406 85.1953 17.8281C84.4297 17.5156 83.7773 17.082 83.2383 16.5273C82.707 15.9648 82.2969 15.3125 82.0078 14.5703C81.7266 13.8203 81.5859 13.0156 81.5859 12.1562V11.6875C81.5859 10.7109 81.7266 9.82422 82.0078 9.02734C82.2891 8.22266 82.6875 7.53125 83.2031 6.95312C83.7188 6.375 84.3359 5.92969 85.0547 5.61719C85.7734 5.30469 86.5664 5.14844 87.4336 5.14844C88.332 5.14844 89.125 5.30078 89.8125 5.60547C90.5 5.90234 91.0742 6.32422 91.5352 6.87109C91.9961 7.41797 92.3438 8.07422 92.5781 8.83984C92.8125 9.59766 92.9297 10.4375 92.9297 11.3594V12.6602H82.9922V10.5273H89.8828V10.293C89.8672 9.80078 89.7734 9.35156 89.6016 8.94531C89.4297 8.53125 89.1641 8.20312 88.8047 7.96094C88.4453 7.71094 87.9805 7.58594 87.4102 7.58594C86.9492 7.58594 86.5469 7.6875 86.2031 7.89062C85.8672 8.08594 85.5859 8.36719 85.3594 8.73438C85.1406 9.09375 84.9766 9.52344 84.8672 10.0234C84.7578 10.5234 84.7031 11.0781 84.7031 11.6875V12.1562C84.7031 12.6875 84.7734 13.1797 84.9141 13.6328C85.0625 14.0859 85.2773 14.4805 85.5586 14.8164C85.8477 15.1445 86.1914 15.4023 86.5898 15.5898C86.9961 15.7695 87.457 15.8594 87.9727 15.8594C88.6211 15.8594 89.207 15.7344 89.7305 15.4844C90.2617 15.2266 90.7227 14.8477 91.1133 14.3477L92.6719 15.9648C92.4062 16.3555 92.0469 16.7305 91.5938 17.0898C91.1484 17.4492 90.6094 17.7422 89.9766 17.9688C89.3438 18.1875 88.6133 18.2969 87.7852 18.2969Z" fill="#3C306B"/>
<path d="M98.3086 5.38281V18.0625H95.2148V5.38281H98.3086ZM106.57 5.38281L100.98 13.1641H97.6875L97.3008 10.3281H99.5859L102.668 5.38281H106.57ZM102.855 18.0625L99.3867 12.625L101.965 11.0078L106.969 18.0625H102.855Z" fill="#3C306B"/>
<path d="M114.539 5.38281V18.0625H111.434V5.38281H114.539ZM118.664 5.38281V7.79688H107.379V5.38281H118.664Z" fill="#3C306B"/>
<path d="M123.574 7.82031V22.9375H120.469V5.38281H123.34L123.574 7.82031ZM131.719 11.5938V11.8398C131.719 12.7617 131.609 13.6172 131.391 14.4062C131.18 15.1875 130.867 15.8711 130.453 16.457C130.039 17.0352 129.523 17.4883 128.906 17.8164C128.297 18.1367 127.594 18.2969 126.797 18.2969C126.016 18.2969 125.336 18.1484 124.758 17.8516C124.18 17.5469 123.691 17.1172 123.293 16.5625C122.895 16.0078 122.574 15.3633 122.332 14.6289C122.098 13.8867 121.922 13.0781 121.805 12.2031V11.418C121.922 10.4883 122.098 9.64453 122.332 8.88672C122.574 8.12109 122.895 7.46094 123.293 6.90625C123.691 6.34375 124.176 5.91016 124.746 5.60547C125.324 5.30078 126 5.14844 126.773 5.14844C127.578 5.14844 128.285 5.30078 128.895 5.60547C129.512 5.91016 130.031 6.34766 130.453 6.91797C130.875 7.48828 131.191 8.16797 131.402 8.95703C131.613 9.74609 131.719 10.625 131.719 11.5938ZM128.613 11.8398V11.5938C128.613 11.0312 128.562 10.5117 128.461 10.0352C128.359 9.55078 128.203 9.12891 127.992 8.76953C127.781 8.40234 127.508 8.11719 127.172 7.91406C126.836 7.71094 126.43 7.60938 125.953 7.60938C125.477 7.60938 125.066 7.6875 124.723 7.84375C124.379 8 124.098 8.22266 123.879 8.51172C123.66 8.80078 123.488 9.14453 123.363 9.54297C123.246 9.93359 123.168 10.3672 123.129 10.8438V12.7891C123.199 13.3672 123.336 13.8867 123.539 14.3477C123.742 14.8086 124.039 15.1758 124.43 15.4492C124.828 15.7227 125.344 15.8594 125.977 15.8594C126.453 15.8594 126.859 15.7539 127.195 15.543C127.531 15.332 127.805 15.043 128.016 14.6758C128.227 14.3008 128.379 13.8711 128.473 13.3867C128.566 12.9023 128.613 12.3867 128.613 11.8398Z" fill="#3C306B"/>
<path d="M137.109 13.6445L141.727 5.38281H144.832V18.0625H141.727V9.78906L137.109 18.0625H134.004V5.38281H137.109V13.6445Z" fill="#3C306B"/>
<path d="M150.949 5.38281V18.0625H147.855V5.38281H150.949ZM159.211 5.38281L153.621 13.1641H150.328L149.941 10.3281H152.227L155.309 5.38281H159.211ZM155.496 18.0625L152.027 12.625L154.605 11.0078L159.609 18.0625H155.496Z" fill="#3C306B"/>
<path d="M111.273 25.5898L106.41 40.0625H103L109.375 23H111.555L111.273 25.5898ZM115.34 40.0625L110.453 25.5898L110.16 23H112.352L118.762 40.0625H115.34ZM115.117 33.7227V36.2656H105.965V33.7227H115.117Z" fill="#FFFDFD"/>
<path d="M129.016 27.3828V29.832H122.805V27.3828H129.016ZM131.348 27.3828V40.0625H128.254V27.3828H131.348ZM122.031 27.3828H125.09L124.75 33.7109C124.695 34.6406 124.598 35.457 124.457 36.1602C124.316 36.8555 124.129 37.4531 123.895 37.9531C123.66 38.4453 123.375 38.8477 123.039 39.1602C122.703 39.4727 122.312 39.7031 121.867 39.8516C121.43 39.9922 120.938 40.0625 120.391 40.0625H119.441L119.406 37.5664L119.852 37.5312C120.125 37.5078 120.359 37.4336 120.555 37.3086C120.758 37.1836 120.93 37.0039 121.07 36.7695C121.219 36.5352 121.34 36.2344 121.434 35.8672C121.535 35.4922 121.613 35.0547 121.668 34.5547C121.73 34.0469 121.773 33.4609 121.797 32.7969L122.031 27.3828Z" fill="#FFFDFD"/>
<path d="M139.879 40.2969C138.918 40.2969 138.055 40.1406 137.289 39.8281C136.523 39.5156 135.871 39.082 135.332 38.5273C134.801 37.9648 134.391 37.3125 134.102 36.5703C133.82 35.8203 133.68 35.0156 133.68 34.1562V33.6875C133.68 32.7109 133.82 31.8242 134.102 31.0273C134.383 30.2227 134.781 29.5312 135.297 28.9531C135.812 28.375 136.43 27.9297 137.148 27.6172C137.867 27.3047 138.66 27.1484 139.527 27.1484C140.426 27.1484 141.219 27.3008 141.906 27.6055C142.594 27.9023 143.168 28.3242 143.629 28.8711C144.09 29.418 144.438 30.0742 144.672 30.8398C144.906 31.5977 145.023 32.4375 145.023 33.3594V34.6602H135.086V32.5273H141.977V32.293C141.961 31.8008 141.867 31.3516 141.695 30.9453C141.523 30.5312 141.258 30.2031 140.898 29.9609C140.539 29.7109 140.074 29.5859 139.504 29.5859C139.043 29.5859 138.641 29.6875 138.297 29.8906C137.961 30.0859 137.68 30.3672 137.453 30.7344C137.234 31.0938 137.07 31.5234 136.961 32.0234C136.852 32.5234 136.797 33.0781 136.797 33.6875V34.1562C136.797 34.6875 136.867 35.1797 137.008 35.6328C137.156 36.0859 137.371 36.4805 137.652 36.8164C137.941 37.1445 138.285 37.4023 138.684 37.5898C139.09 37.7695 139.551 37.8594 140.066 37.8594C140.715 37.8594 141.301 37.7344 141.824 37.4844C142.355 37.2266 142.816 36.8477 143.207 36.3477L144.766 37.9648C144.5 38.3555 144.141 38.7305 143.688 39.0898C143.242 39.4492 142.703 39.7422 142.07 39.9688C141.438 40.1875 140.707 40.2969 139.879 40.2969Z" fill="#FFFDFD"/>
<path d="M150.402 27.3828V40.0625H147.309V27.3828H150.402ZM158.664 27.3828L153.074 35.1641H149.781L149.395 32.3281H151.68L154.762 27.3828H158.664ZM154.949 40.0625L151.48 34.625L154.059 33.0078L159.062 40.0625H154.949Z" fill="#FFFDFD"/>
<path d="M165.496 37.8594C165.934 37.8594 166.324 37.7734 166.668 37.6016C167.012 37.4297 167.285 37.1875 167.488 36.875C167.699 36.5625 167.812 36.1992 167.828 35.7852H170.746C170.73 36.6445 170.488 37.4141 170.02 38.0938C169.551 38.7734 168.926 39.3125 168.145 39.7109C167.371 40.1016 166.504 40.2969 165.543 40.2969C164.566 40.2969 163.715 40.1328 162.988 39.8047C162.262 39.4766 161.656 39.0195 161.172 38.4336C160.695 37.8477 160.336 37.168 160.094 36.3945C159.859 35.6211 159.742 34.793 159.742 33.9102V33.5352C159.742 32.6523 159.859 31.8242 160.094 31.0508C160.336 30.2773 160.695 29.5977 161.172 29.0117C161.656 28.4258 162.262 27.9688 162.988 27.6406C163.715 27.3125 164.562 27.1484 165.531 27.1484C166.555 27.1484 167.453 27.3477 168.227 27.7461C169.008 28.1445 169.617 28.707 170.055 29.4336C170.5 30.1602 170.73 31.0156 170.746 32H167.828C167.812 31.5469 167.711 31.1406 167.523 30.7812C167.336 30.4219 167.07 30.1328 166.727 29.9141C166.383 29.6953 165.965 29.5859 165.473 29.5859C164.949 29.5859 164.512 29.6953 164.16 29.9141C163.816 30.1328 163.547 30.4336 163.352 30.8164C163.164 31.1914 163.031 31.6133 162.953 32.082C162.883 32.543 162.848 33.0273 162.848 33.5352V33.9102C162.848 34.4258 162.883 34.918 162.953 35.3867C163.031 35.8555 163.164 36.2773 163.352 36.6523C163.547 37.0195 163.816 37.3125 164.16 37.5312C164.512 37.75 164.957 37.8594 165.496 37.8594Z" fill="#FFFDFD"/>
<path d="M178.504 40.2969C177.543 40.2969 176.68 40.1406 175.914 39.8281C175.148 39.5156 174.496 39.082 173.957 38.5273C173.426 37.9648 173.016 37.3125 172.727 36.5703C172.445 35.8203 172.305 35.0156 172.305 34.1562V33.6875C172.305 32.7109 172.445 31.8242 172.727 31.0273C173.008 30.2227 173.406 29.5312 173.922 28.9531C174.438 28.375 175.055 27.9297 175.773 27.6172C176.492 27.3047 177.285 27.1484 178.152 27.1484C179.051 27.1484 179.844 27.3008 180.531 27.6055C181.219 27.9023 181.793 28.3242 182.254 28.8711C182.715 29.418 183.062 30.0742 183.297 30.8398C183.531 31.5977 183.648 32.4375 183.648 33.3594V34.6602H173.711V32.5273H180.602V32.293C180.586 31.8008 180.492 31.3516 180.32 30.9453C180.148 30.5312 179.883 30.2031 179.523 29.9609C179.164 29.7109 178.699 29.5859 178.129 29.5859C177.668 29.5859 177.266 29.6875 176.922 29.8906C176.586 30.0859 176.305 30.3672 176.078 30.7344C175.859 31.0938 175.695 31.5234 175.586 32.0234C175.477 32.5234 175.422 33.0781 175.422 33.6875V34.1562C175.422 34.6875 175.492 35.1797 175.633 35.6328C175.781 36.0859 175.996 36.4805 176.277 36.8164C176.566 37.1445 176.91 37.4023 177.309 37.5898C177.715 37.7695 178.176 37.8594 178.691 37.8594C179.34 37.8594 179.926 37.7344 180.449 37.4844C180.98 37.2266 181.441 36.8477 181.832 36.3477L183.391 37.9648C183.125 38.3555 182.766 38.7305 182.312 39.0898C181.867 39.4492 181.328 39.7422 180.695 39.9688C180.062 40.1875 179.332 40.2969 178.504 40.2969Z" fill="#FFFDFD"/>
<path d="M188.852 35.6445L193.469 27.3828H196.574V40.0625H193.469V31.7891L188.852 40.0625H185.746V27.3828H188.852V35.6445ZM192.895 22.4023H195.145C195.145 23.0586 194.984 23.6406 194.664 24.1484C194.344 24.6562 193.887 25.0547 193.293 25.3438C192.707 25.625 192.012 25.7656 191.207 25.7656C189.996 25.7656 189.035 25.4531 188.324 24.8281C187.613 24.2031 187.258 23.3945 187.258 22.4023H189.508C189.508 22.8164 189.637 23.1875 189.895 23.5156C190.152 23.8438 190.59 24.0078 191.207 24.0078C191.824 24.0078 192.258 23.8438 192.508 23.5156C192.766 23.1875 192.895 22.8164 192.895 22.4023Z" fill="#FFFDFD"/>
</svg>
