<svg width="278" height="45" viewBox="0 0 278 45" fill="none" xmlns="http://www.w3.org/2000/svg">
<path d="M225.23 24.9463C223.459 25.4774 221.535 29.3235 220.922 30.8374C219.907 33.3456 219.503 36.0786 220.903 38.5055C222.78 41.7587 225.678 43.1493 229.402 43.0252C246.326 42.461 246.09 18.5381 246.09 6.67424C246.09 5.83635 245.641 2 246.959 2C248.87 2 248.434 4.77956 248.871 6.17205C249.505 8.19302 249.103 10.3423 249.393 12.4301C249.684 14.5289 249.914 16.5532 249.914 18.6689C249.914 21.3937 250.573 23.7686 251.034 26.4142C251.393 28.4665 251.667 30.9067 252.348 32.8655C253.436 35.9936 253.91 39.2647 256.868 41.113C259.794 42.9417 263.105 31.3145 263.126 29.8137C263.186 25.3493 260.525 21.5302 257.061 19.0359C252.62 15.8384 247.153 16.4832 241.918 16.6022C237.992 16.6914 233.226 19.4098 233.226 23.7488C233.226 29.6033 238.785 32.0152 243.811 32.5178C250.976 33.2343 259.12 31.6634 264.671 26.8778C269.332 22.8599 274.159 16.8491 276.337 11.0394" stroke="#DF518D" stroke-width="3" stroke-linecap="round"/>
<path d="M8.41406 3.52734L3.55078 18H0.140625L6.51562 0.9375H8.69531L8.41406 3.52734ZM12.4805 18L7.59375 3.52734L7.30078 0.9375H9.49219L15.9023 18H12.4805ZM12.2578 11.6602V14.2031H3.10547V11.6602H12.2578Z" fill="#DF518D"/>
<path d="M23.6602 12.6328H19.6406L19.6172 10.5352H22.9219C23.4141 10.5352 23.8164 10.4844 24.1289 10.3828C24.4414 10.2812 24.6719 10.1289 24.8203 9.92578C24.9766 9.72266 25.0547 9.47656 25.0547 9.1875C25.0547 8.9375 25.0078 8.72266 24.9141 8.54297C24.8203 8.35547 24.6797 8.20312 24.4922 8.08594C24.3125 7.96875 24.082 7.88281 23.8008 7.82812C23.5273 7.76562 23.207 7.73438 22.8398 7.73438H20.7422V18H17.6367V5.32031H22.8398C23.6602 5.32031 24.3984 5.39453 25.0547 5.54297C25.7109 5.68359 26.2695 5.89844 26.7305 6.1875C27.1914 6.47656 27.543 6.84375 27.7852 7.28906C28.0352 7.72656 28.1602 8.24219 28.1602 8.83594C28.1602 9.22656 28.0742 9.59375 27.9023 9.9375C27.7305 10.2812 27.4766 10.5859 27.1406 10.8516C26.8047 11.1172 26.3906 11.3359 25.8984 11.5078C25.4062 11.6719 24.8438 11.7734 24.2109 11.8125L23.6602 12.6328ZM23.6602 18H18.8086L19.957 15.5859H23.6602C24.1133 15.5859 24.4883 15.5312 24.7852 15.4219C25.082 15.3047 25.3008 15.1367 25.4414 14.918C25.5898 14.6992 25.6641 14.4336 25.6641 14.1211C25.6641 13.8164 25.5938 13.5547 25.4531 13.3359C25.3203 13.1094 25.1055 12.9375 24.8086 12.8203C24.5195 12.6953 24.1367 12.6328 23.6602 12.6328H20.4609L20.4844 10.5352H24.1992L25.0195 11.3672C25.8633 11.4219 26.5625 11.5938 27.1172 11.8828C27.6719 12.1641 28.0859 12.5234 28.3594 12.9609C28.6328 13.3906 28.7695 13.8633 28.7695 14.3789C28.7695 14.9805 28.6562 15.5078 28.4297 15.9609C28.2031 16.4141 27.8711 16.793 27.4336 17.0977C26.9961 17.3945 26.4609 17.6211 25.8281 17.7773C25.1953 17.9258 24.4727 18 23.6602 18Z" fill="#DF518D"/>
<path d="M37.0312 5.32031V18H33.9258V5.32031H37.0312ZM41.1562 5.32031V7.73438H29.8711V5.32031H41.1562Z" fill="#DF518D"/>
<path d="M42 11.7891V11.543C42 10.6133 42.1328 9.75781 42.3984 8.97656C42.6641 8.1875 43.0508 7.50391 43.5586 6.92578C44.0664 6.34766 44.6875 5.89844 45.4219 5.57812C46.1562 5.25 46.9922 5.08594 47.9297 5.08594C48.8828 5.08594 49.7266 5.25 50.4609 5.57812C51.2031 5.89844 51.8281 6.34766 52.3359 6.92578C52.8438 7.50391 53.2305 8.1875 53.4961 8.97656C53.7617 9.75781 53.8945 10.6133 53.8945 11.543V11.7891C53.8945 12.7109 53.7617 13.5664 53.4961 14.3555C53.2305 15.1367 52.8438 15.8203 52.3359 16.4062C51.8281 16.9844 51.207 17.4336 50.4727 17.7539C49.7383 18.0742 48.8984 18.2344 47.9531 18.2344C47.0156 18.2344 46.1758 18.0742 45.4336 17.7539C44.6914 17.4336 44.0664 16.9844 43.5586 16.4062C43.0508 15.8203 42.6641 15.1367 42.3984 14.3555C42.1328 13.5664 42 12.7109 42 11.7891ZM45.0938 11.543V11.7891C45.0938 12.3438 45.1484 12.8633 45.2578 13.3477C45.3672 13.832 45.5352 14.2578 45.7617 14.625C45.9883 14.9922 46.2812 15.2812 46.6406 15.4922C47.0078 15.6953 47.4453 15.7969 47.9531 15.7969C48.4531 15.7969 48.8828 15.6953 49.2422 15.4922C49.6016 15.2812 49.8945 14.9922 50.1211 14.625C50.3555 14.2578 50.5273 13.832 50.6367 13.3477C50.7461 12.8633 50.8008 12.3438 50.8008 11.7891V11.543C50.8008 10.9961 50.7461 10.4844 50.6367 10.0078C50.5273 9.52344 50.3555 9.09766 50.1211 8.73047C49.8945 8.35547 49.5977 8.0625 49.2305 7.85156C48.8711 7.63281 48.4375 7.52344 47.9297 7.52344C47.4297 7.52344 47 7.63281 46.6406 7.85156C46.2812 8.0625 45.9883 8.35547 45.7617 8.73047C45.5352 9.09766 45.3672 9.52344 45.2578 10.0078C45.1484 10.4844 45.0938 10.9961 45.0938 11.543Z" fill="#DF518D"/>
<path d="M60.7031 7.52344C60.2812 7.52344 59.9023 7.60938 59.5664 7.78125C59.2383 7.95312 58.9805 8.19531 58.793 8.50781C58.6055 8.8125 58.5117 9.17578 58.5117 9.59766H55.582C55.582 8.73828 55.8125 7.96875 56.2734 7.28906C56.7422 6.60938 57.3633 6.07422 58.1367 5.68359C58.9102 5.28516 59.7656 5.08594 60.7031 5.08594C61.6484 5.08594 62.4805 5.25 63.1992 5.57812C63.9258 5.90625 64.5312 6.36328 65.0156 6.94922C65.5078 7.53516 65.8789 8.21484 66.1289 8.98828C66.3789 9.76172 66.5039 10.5898 66.5039 11.4727V11.8477C66.5039 12.7305 66.3789 13.5586 66.1289 14.332C65.8789 15.1055 65.5078 15.7852 65.0156 16.3711C64.5312 16.957 63.9297 17.4141 63.2109 17.7422C62.4922 18.0703 61.6641 18.2344 60.7266 18.2344C59.7188 18.2344 58.8281 18.0352 58.0547 17.6367C57.2812 17.2383 56.6758 16.6758 56.2383 15.9492C55.8008 15.2227 55.582 14.3711 55.582 13.3945H58.5117C58.5117 13.8398 58.6016 14.2461 58.7812 14.6133C58.9609 14.9727 59.2148 15.2617 59.543 15.4805C59.8711 15.6914 60.2656 15.7969 60.7266 15.7969C61.2266 15.7969 61.6445 15.6875 61.9805 15.4688C62.3242 15.25 62.5977 14.9531 62.8008 14.5781C63.0117 14.2031 63.1602 13.7812 63.2461 13.3125C63.3398 12.8359 63.3867 12.3477 63.3867 11.8477V11.4727C63.3867 10.9648 63.3398 10.4766 63.2461 10.0078C63.1602 9.53125 63.0156 9.10938 62.8125 8.74219C62.6094 8.36719 62.332 8.07031 61.9805 7.85156C61.6367 7.63281 61.2109 7.52344 60.7031 7.52344ZM64.4766 10.6055V12.5742H59.625V10.6055H64.4766Z" fill="#DF518D"/>
<path d="M77.0625 5.32031V7.76953H70.8516V5.32031H77.0625ZM79.3945 5.32031V18H76.3008V5.32031H79.3945ZM70.0781 5.32031H73.1367L72.7969 11.6484C72.7422 12.5781 72.6445 13.3945 72.5039 14.0977C72.3633 14.793 72.1758 15.3906 71.9414 15.8906C71.707 16.3828 71.4219 16.7852 71.0859 17.0977C70.75 17.4102 70.3594 17.6406 69.9141 17.7891C69.4766 17.9297 68.9844 18 68.4375 18H67.4883L67.4531 15.5039L67.8984 15.4688C68.1719 15.4453 68.4062 15.3711 68.6016 15.2461C68.8047 15.1211 68.9766 14.9414 69.1172 14.707C69.2656 14.4727 69.3867 14.1719 69.4805 13.8047C69.582 13.4297 69.6602 12.9922 69.7148 12.4922C69.7773 11.9844 69.8203 11.3984 69.8438 10.7344L70.0781 5.32031Z" fill="#DF518D"/>
<path d="M87.9258 18.2344C86.9648 18.2344 86.1016 18.0781 85.3359 17.7656C84.5703 17.4531 83.918 17.0195 83.3789 16.4648C82.8477 15.9023 82.4375 15.25 82.1484 14.5078C81.8672 13.7578 81.7266 12.9531 81.7266 12.0938V11.625C81.7266 10.6484 81.8672 9.76172 82.1484 8.96484C82.4297 8.16016 82.8281 7.46875 83.3438 6.89062C83.8594 6.3125 84.4766 5.86719 85.1953 5.55469C85.9141 5.24219 86.707 5.08594 87.5742 5.08594C88.4727 5.08594 89.2656 5.23828 89.9531 5.54297C90.6406 5.83984 91.2148 6.26172 91.6758 6.80859C92.1367 7.35547 92.4844 8.01172 92.7188 8.77734C92.9531 9.53516 93.0703 10.375 93.0703 11.2969V12.5977H83.1328V10.4648H90.0234V10.2305C90.0078 9.73828 89.9141 9.28906 89.7422 8.88281C89.5703 8.46875 89.3047 8.14062 88.9453 7.89844C88.5859 7.64844 88.1211 7.52344 87.5508 7.52344C87.0898 7.52344 86.6875 7.625 86.3438 7.82812C86.0078 8.02344 85.7266 8.30469 85.5 8.67188C85.2812 9.03125 85.1172 9.46094 85.0078 9.96094C84.8984 10.4609 84.8438 11.0156 84.8438 11.625V12.0938C84.8438 12.625 84.9141 13.1172 85.0547 13.5703C85.2031 14.0234 85.418 14.418 85.6992 14.7539C85.9883 15.082 86.332 15.3398 86.7305 15.5273C87.1367 15.707 87.5977 15.7969 88.1133 15.7969C88.7617 15.7969 89.3477 15.6719 89.8711 15.4219C90.4023 15.1641 90.8633 14.7852 91.2539 14.2852L92.8125 15.9023C92.5469 16.293 92.1875 16.668 91.7344 17.0273C91.2891 17.3867 90.75 17.6797 90.1172 17.9062C89.4844 18.125 88.7539 18.2344 87.9258 18.2344Z" fill="#DF518D"/>
<path d="M98.4492 5.32031V18H95.3555V5.32031H98.4492ZM106.711 5.32031L101.121 13.1016H97.8281L97.4414 10.2656H99.7266L102.809 5.32031H106.711ZM102.996 18L99.5273 12.5625L102.105 10.9453L107.109 18H102.996Z" fill="#DF518D"/>
<path d="M114.68 5.32031V18H111.574V5.32031H114.68ZM118.805 5.32031V7.73438H107.52V5.32031H118.805Z" fill="#DF518D"/>
<path d="M123.715 7.75781V22.875H120.609V5.32031H123.48L123.715 7.75781ZM131.859 11.5312V11.7773C131.859 12.6992 131.75 13.5547 131.531 14.3438C131.32 15.125 131.008 15.8086 130.594 16.3945C130.18 16.9727 129.664 17.4258 129.047 17.7539C128.438 18.0742 127.734 18.2344 126.938 18.2344C126.156 18.2344 125.477 18.0859 124.898 17.7891C124.32 17.4844 123.832 17.0547 123.434 16.5C123.035 15.9453 122.715 15.3008 122.473 14.5664C122.238 13.8242 122.062 13.0156 121.945 12.1406V11.3555C122.062 10.4258 122.238 9.58203 122.473 8.82422C122.715 8.05859 123.035 7.39844 123.434 6.84375C123.832 6.28125 124.316 5.84766 124.887 5.54297C125.465 5.23828 126.141 5.08594 126.914 5.08594C127.719 5.08594 128.426 5.23828 129.035 5.54297C129.652 5.84766 130.172 6.28516 130.594 6.85547C131.016 7.42578 131.332 8.10547 131.543 8.89453C131.754 9.68359 131.859 10.5625 131.859 11.5312ZM128.754 11.7773V11.5312C128.754 10.9688 128.703 10.4492 128.602 9.97266C128.5 9.48828 128.344 9.06641 128.133 8.70703C127.922 8.33984 127.648 8.05469 127.312 7.85156C126.977 7.64844 126.57 7.54688 126.094 7.54688C125.617 7.54688 125.207 7.625 124.863 7.78125C124.52 7.9375 124.238 8.16016 124.02 8.44922C123.801 8.73828 123.629 9.08203 123.504 9.48047C123.387 9.87109 123.309 10.3047 123.27 10.7812V12.7266C123.34 13.3047 123.477 13.8242 123.68 14.2852C123.883 14.7461 124.18 15.1133 124.57 15.3867C124.969 15.6602 125.484 15.7969 126.117 15.7969C126.594 15.7969 127 15.6914 127.336 15.4805C127.672 15.2695 127.945 14.9805 128.156 14.6133C128.367 14.2383 128.52 13.8086 128.613 13.3242C128.707 12.8398 128.754 12.3242 128.754 11.7773Z" fill="#DF518D"/>
<path d="M137.25 13.582L141.867 5.32031H144.973V18H141.867V9.72656L137.25 18H134.145V5.32031H137.25V13.582Z" fill="#DF518D"/>
<path d="M151.09 5.32031V18H147.996V5.32031H151.09ZM159.352 5.32031L153.762 13.1016H150.469L150.082 10.2656H152.367L155.449 5.32031H159.352ZM155.637 18L152.168 12.5625L154.746 10.9453L159.75 18H155.637Z" fill="#DF518D"/>
<path d="M111.414 25.5273L106.551 40H103.141L109.516 22.9375H111.695L111.414 25.5273ZM115.48 40L110.594 25.5273L110.301 22.9375H112.492L118.902 40H115.48ZM115.258 33.6602V36.2031H106.105V33.6602H115.258Z" fill="#FFFDFD"/>
<path d="M129.156 27.3203V29.7695H122.945V27.3203H129.156ZM131.488 27.3203V40H128.395V27.3203H131.488ZM122.172 27.3203H125.23L124.891 33.6484C124.836 34.5781 124.738 35.3945 124.598 36.0977C124.457 36.793 124.27 37.3906 124.035 37.8906C123.801 38.3828 123.516 38.7852 123.18 39.0977C122.844 39.4102 122.453 39.6406 122.008 39.7891C121.57 39.9297 121.078 40 120.531 40H119.582L119.547 37.5039L119.992 37.4688C120.266 37.4453 120.5 37.3711 120.695 37.2461C120.898 37.1211 121.07 36.9414 121.211 36.707C121.359 36.4727 121.48 36.1719 121.574 35.8047C121.676 35.4297 121.754 34.9922 121.809 34.4922C121.871 33.9844 121.914 33.3984 121.938 32.7344L122.172 27.3203Z" fill="#FFFDFD"/>
<path d="M140.02 40.2344C139.059 40.2344 138.195 40.0781 137.43 39.7656C136.664 39.4531 136.012 39.0195 135.473 38.4648C134.941 37.9023 134.531 37.25 134.242 36.5078C133.961 35.7578 133.82 34.9531 133.82 34.0938V33.625C133.82 32.6484 133.961 31.7617 134.242 30.9648C134.523 30.1602 134.922 29.4688 135.438 28.8906C135.953 28.3125 136.57 27.8672 137.289 27.5547C138.008 27.2422 138.801 27.0859 139.668 27.0859C140.566 27.0859 141.359 27.2383 142.047 27.543C142.734 27.8398 143.309 28.2617 143.77 28.8086C144.23 29.3555 144.578 30.0117 144.812 30.7773C145.047 31.5352 145.164 32.375 145.164 33.2969V34.5977H135.227V32.4648H142.117V32.2305C142.102 31.7383 142.008 31.2891 141.836 30.8828C141.664 30.4688 141.398 30.1406 141.039 29.8984C140.68 29.6484 140.215 29.5234 139.645 29.5234C139.184 29.5234 138.781 29.625 138.438 29.8281C138.102 30.0234 137.82 30.3047 137.594 30.6719C137.375 31.0312 137.211 31.4609 137.102 31.9609C136.992 32.4609 136.938 33.0156 136.938 33.625V34.0938C136.938 34.625 137.008 35.1172 137.148 35.5703C137.297 36.0234 137.512 36.418 137.793 36.7539C138.082 37.082 138.426 37.3398 138.824 37.5273C139.23 37.707 139.691 37.7969 140.207 37.7969C140.855 37.7969 141.441 37.6719 141.965 37.4219C142.496 37.1641 142.957 36.7852 143.348 36.2852L144.906 37.9023C144.641 38.293 144.281 38.668 143.828 39.0273C143.383 39.3867 142.844 39.6797 142.211 39.9062C141.578 40.125 140.848 40.2344 140.02 40.2344Z" fill="#FFFDFD"/>
<path d="M150.543 27.3203V40H147.449V27.3203H150.543ZM158.805 27.3203L153.215 35.1016H149.922L149.535 32.2656H151.82L154.902 27.3203H158.805ZM155.09 40L151.621 34.5625L154.199 32.9453L159.203 40H155.09Z" fill="#FFFDFD"/>
<path d="M165.637 37.7969C166.074 37.7969 166.465 37.7109 166.809 37.5391C167.152 37.3672 167.426 37.125 167.629 36.8125C167.84 36.5 167.953 36.1367 167.969 35.7227H170.887C170.871 36.582 170.629 37.3516 170.16 38.0312C169.691 38.7109 169.066 39.25 168.285 39.6484C167.512 40.0391 166.645 40.2344 165.684 40.2344C164.707 40.2344 163.855 40.0703 163.129 39.7422C162.402 39.4141 161.797 38.957 161.312 38.3711C160.836 37.7852 160.477 37.1055 160.234 36.332C160 35.5586 159.883 34.7305 159.883 33.8477V33.4727C159.883 32.5898 160 31.7617 160.234 30.9883C160.477 30.2148 160.836 29.5352 161.312 28.9492C161.797 28.3633 162.402 27.9062 163.129 27.5781C163.855 27.25 164.703 27.0859 165.672 27.0859C166.695 27.0859 167.594 27.2852 168.367 27.6836C169.148 28.082 169.758 28.6445 170.195 29.3711C170.641 30.0977 170.871 30.9531 170.887 31.9375H167.969C167.953 31.4844 167.852 31.0781 167.664 30.7188C167.477 30.3594 167.211 30.0703 166.867 29.8516C166.523 29.6328 166.105 29.5234 165.613 29.5234C165.09 29.5234 164.652 29.6328 164.301 29.8516C163.957 30.0703 163.688 30.3711 163.492 30.7539C163.305 31.1289 163.172 31.5508 163.094 32.0195C163.023 32.4805 162.988 32.9648 162.988 33.4727V33.8477C162.988 34.3633 163.023 34.8555 163.094 35.3242C163.172 35.793 163.305 36.2148 163.492 36.5898C163.688 36.957 163.957 37.25 164.301 37.4688C164.652 37.6875 165.098 37.7969 165.637 37.7969Z" fill="#FFFDFD"/>
<path d="M178.645 40.2344C177.684 40.2344 176.82 40.0781 176.055 39.7656C175.289 39.4531 174.637 39.0195 174.098 38.4648C173.566 37.9023 173.156 37.25 172.867 36.5078C172.586 35.7578 172.445 34.9531 172.445 34.0938V33.625C172.445 32.6484 172.586 31.7617 172.867 30.9648C173.148 30.1602 173.547 29.4688 174.062 28.8906C174.578 28.3125 175.195 27.8672 175.914 27.5547C176.633 27.2422 177.426 27.0859 178.293 27.0859C179.191 27.0859 179.984 27.2383 180.672 27.543C181.359 27.8398 181.934 28.2617 182.395 28.8086C182.855 29.3555 183.203 30.0117 183.438 30.7773C183.672 31.5352 183.789 32.375 183.789 33.2969V34.5977H173.852V32.4648H180.742V32.2305C180.727 31.7383 180.633 31.2891 180.461 30.8828C180.289 30.4688 180.023 30.1406 179.664 29.8984C179.305 29.6484 178.84 29.5234 178.27 29.5234C177.809 29.5234 177.406 29.625 177.062 29.8281C176.727 30.0234 176.445 30.3047 176.219 30.6719C176 31.0312 175.836 31.4609 175.727 31.9609C175.617 32.4609 175.562 33.0156 175.562 33.625V34.0938C175.562 34.625 175.633 35.1172 175.773 35.5703C175.922 36.0234 176.137 36.418 176.418 36.7539C176.707 37.082 177.051 37.3398 177.449 37.5273C177.855 37.707 178.316 37.7969 178.832 37.7969C179.48 37.7969 180.066 37.6719 180.59 37.4219C181.121 37.1641 181.582 36.7852 181.973 36.2852L183.531 37.9023C183.266 38.293 182.906 38.668 182.453 39.0273C182.008 39.3867 181.469 39.6797 180.836 39.9062C180.203 40.125 179.473 40.2344 178.645 40.2344Z" fill="#FFFDFD"/>
<path d="M188.992 35.582L193.609 27.3203H196.715V40H193.609V31.7266L188.992 40H185.887V27.3203H188.992V35.582ZM193.035 22.3398H195.285C195.285 22.9961 195.125 23.5781 194.805 24.0859C194.484 24.5938 194.027 24.9922 193.434 25.2812C192.848 25.5625 192.152 25.7031 191.348 25.7031C190.137 25.7031 189.176 25.3906 188.465 24.7656C187.754 24.1406 187.398 23.332 187.398 22.3398H189.648C189.648 22.7539 189.777 23.125 190.035 23.4531C190.293 23.7812 190.73 23.9453 191.348 23.9453C191.965 23.9453 192.398 23.7812 192.648 23.4531C192.906 23.125 193.035 22.7539 193.035 22.3398Z" fill="#FFFDFD"/>
</svg>
